<?xml version="1.0" encoding="UTF-8" standalone="no"?>
<!DOCTYPE svg PUBLIC "-//W3C//DTD SVG 1.1//EN"
 "http://www.w3.org/Graphics/SVG/1.1/DTD/svg11.dtd">
<!-- Generated by graphviz version 2.43.0 (0)
 -->
<!-- Title: OrgLexerDFA Pages: 1 -->
<svg width="2158pt" height="1768pt"
 viewBox="0.00 0.00 2158.46 1767.80" xmlns="http://www.w3.org/2000/svg" xmlns:xlink="http://www.w3.org/1999/xlink">
<g id="graph0" class="graph" transform="scale(1 1) rotate(0) translate(4 1763.8)">
<title>OrgLexerDFA</title>
<polygon fill="white" stroke="transparent" points="-4,4 -4,-1763.8 2154.46,-1763.8 2154.46,4 -4,4"/>
<!-- START -->
<g id="node1" class="node">
<title>START</title>
<ellipse fill="none" stroke="black" cx="73.23" cy="-466.8" rx="32.75" ry="32.75"/>
<text text-anchor="middle" x="73.23" y="-463.7" font-family="Times,serif" font-size="12.00">START</text>
</g>
<!-- OTHER -->
<g id="node2" class="node">
<title>OTHER</title>
<ellipse fill="none" stroke="black" cx="2036.88" cy="-634.8" rx="35.89" ry="35.89"/>
<ellipse fill="none" stroke="black" cx="2036.88" cy="-634.8" rx="39.91" ry="39.91"/>
<text text-anchor="middle" x="2036.88" y="-631.7" font-family="Times,serif" font-size="12.00">OTHER</text>
</g>
<!-- START&#45;&gt;OTHER -->
<g id="edge11" class="edge">
<title>START&#45;&gt;OTHER</title>
<path fill="none" stroke="black" d="M74.71,-499.52C76.62,-605.96 85.58,-951.78 123.85,-1234.8 144.11,-1384.58 148.34,-1423.36 192.85,-1567.8 217.94,-1649.2 181.16,-1744.8 266.34,-1744.8 266.34,-1744.8 266.34,-1744.8 1768.58,-1744.8 1811.34,-1744.8 1832.8,-1746.35 1859.31,-1712.8 1943.11,-1606.71 1900.5,-1241.05 1923.31,-1107.8 1950.23,-950.49 1998.79,-767.55 2022.34,-682.64"/>
<polygon fill="black" stroke="black" points="2025.77,-683.35 2025.08,-672.77 2019.03,-681.47 2025.77,-683.35"/>
<text text-anchor="middle" x="978.19" y="-1748.6" font-family="Times,serif" font-size="14.00">other</text>
</g>
<!-- CHECK_HEADING -->
<g id="node15" class="node">
<title>CHECK_HEADING</title>
<ellipse fill="none" stroke="black" cx="267.34" cy="-1451.8" rx="74.47" ry="74.47"/>
<text text-anchor="middle" x="267.34" y="-1448.7" font-family="Times,serif" font-size="12.00">CHECK_HEADING</text>
</g>
<!-- START&#45;&gt;CHECK_HEADING -->
<g id="edge2" class="edge">
<title>START&#45;&gt;CHECK_HEADING</title>
<path fill="none" stroke="black" d="M74.16,-499.55C74.61,-588.46 79.96,-841.36 123.85,-1045.8 149.09,-1163.35 198.92,-1293.58 232.44,-1374.08"/>
<polygon fill="black" stroke="black" points="229.35,-1375.77 236.44,-1383.64 235.81,-1373.07 229.35,-1375.77"/>
<text text-anchor="middle" x="149.35" y="-1219.6" font-family="Times,serif" font-size="14.00">*</text>
</g>
<!-- WS_ALLOWED -->
<g id="node16" class="node">
<title>WS_ALLOWED</title>
<ellipse fill="none" stroke="black" cx="267.34" cy="-247.8" rx="62.35" ry="62.35"/>
<text text-anchor="middle" x="267.34" y="-244.7" font-family="Times,serif" font-size="12.00">WS_ALLOWED</text>
</g>
<!-- START&#45;&gt;WS_ALLOWED -->
<g id="edge3" class="edge">
<title>START&#45;&gt;WS_ALLOWED</title>
<path fill="none" stroke="black" d="M82.45,-435.25C90.13,-410.17 103.51,-375.2 123.85,-349.8 145.48,-322.8 176,-299.67 203.25,-282.29"/>
<polygon fill="black" stroke="black" points="205.33,-285.11 211.96,-276.85 201.63,-279.17 205.33,-285.11"/>
<text text-anchor="middle" x="149.35" y="-353.6" font-family="Times,serif" font-size="14.00">space/tab</text>
</g>
<!-- HASH_DISPATCH -->
<g id="node17" class="node">
<title>HASH_DISPATCH</title>
<ellipse fill="none" stroke="black" cx="495.62" cy="-1156.8" rx="69.62" ry="69.62"/>
<text text-anchor="middle" x="495.62" y="-1153.7" font-family="Times,serif" font-size="12.00">HASH_DISPATCH</text>
</g>
<!-- START&#45;&gt;HASH_DISPATCH -->
<g id="edge4" class="edge">
<title>START&#45;&gt;HASH_DISPATCH</title>
<path fill="none" stroke="black" d="M90.97,-494.27C151.94,-594.36 363.32,-941.28 453.42,-1089.17"/>
<polygon fill="black" stroke="black" points="450.47,-1091.05 458.66,-1097.77 456.44,-1087.41 450.47,-1091.05"/>
<text text-anchor="middle" x="267.34" y="-906.6" font-family="Times,serif" font-size="14.00">#</text>
</g>
<!-- CHECK_LITERAL -->
<g id="node18" class="node">
<title>CHECK_LITERAL</title>
<ellipse fill="none" stroke="black" cx="495.62" cy="-671.8" rx="71.32" ry="71.32"/>
<text text-anchor="middle" x="495.62" y="-668.7" font-family="Times,serif" font-size="12.00">CHECK_LITERAL</text>
</g>
<!-- START&#45;&gt;CHECK_LITERAL -->
<g id="edge5" class="edge">
<title>START&#45;&gt;CHECK_LITERAL</title>
<path fill="none" stroke="black" d="M102.79,-480.73C167.62,-512.34 327.57,-590.34 421.85,-636.31"/>
<polygon fill="black" stroke="black" points="420.52,-639.56 431.04,-640.8 423.59,-633.27 420.52,-639.56"/>
<text text-anchor="middle" x="267.34" y="-599.6" font-family="Times,serif" font-size="14.00">:</text>
</g>
<!-- CHECK_C -->
<g id="node24" class="node">
<title>CHECK_C</title>
<ellipse fill="none" stroke="black" cx="495.62" cy="-498.8" rx="44.88" ry="44.88"/>
<text text-anchor="middle" x="495.62" y="-495.7" font-family="Times,serif" font-size="12.00">CHECK_C</text>
</g>
<!-- START&#45;&gt;CHECK_C -->
<g id="edge6" class="edge">
<title>START&#45;&gt;CHECK_C</title>
<path fill="none" stroke="black" d="M105.82,-469.2C177.18,-474.63 351.5,-487.9 440.47,-494.68"/>
<polygon fill="black" stroke="black" points="440.38,-498.18 450.62,-495.45 440.91,-491.2 440.38,-498.18"/>
<text text-anchor="middle" x="267.34" y="-491.6" font-family="Times,serif" font-size="14.00">C</text>
</g>
<!-- CHECK_D -->
<g id="node25" class="node">
<title>CHECK_D</title>
<ellipse fill="none" stroke="black" cx="495.62" cy="-277.8" rx="45.61" ry="45.61"/>
<text text-anchor="middle" x="495.62" y="-274.7" font-family="Times,serif" font-size="12.00">CHECK_D</text>
</g>
<!-- START&#45;&gt;CHECK_D -->
<g id="edge7" class="edge">
<title>START&#45;&gt;CHECK_D</title>
<path fill="none" stroke="black" d="M101.27,-449.8C124.84,-435.47 160.25,-415.07 192.85,-400.8 256.7,-372.84 277.21,-377.93 341.82,-351.8 377.33,-337.44 416.16,-318.59 445.79,-303.51"/>
<polygon fill="black" stroke="black" points="447.76,-306.43 455.07,-298.76 444.57,-300.2 447.76,-306.43"/>
<text text-anchor="middle" x="267.34" y="-404.6" font-family="Times,serif" font-size="14.00">D</text>
</g>
<!-- CHECK_S -->
<g id="node26" class="node">
<title>CHECK_S</title>
<ellipse fill="none" stroke="black" cx="495.62" cy="-391.8" rx="43.91" ry="43.91"/>
<text text-anchor="middle" x="495.62" y="-388.7" font-family="Times,serif" font-size="12.00">CHECK_S</text>
</g>
<!-- START&#45;&gt;CHECK_S -->
<g id="edge8" class="edge">
<title>START&#45;&gt;CHECK_S</title>
<path fill="none" stroke="black" d="M105.48,-461.22C177.14,-448.44 353.91,-416.9 442.4,-401.11"/>
<polygon fill="black" stroke="black" points="443.25,-404.52 452.48,-399.32 442.02,-397.63 443.25,-404.52"/>
<text text-anchor="middle" x="267.34" y="-449.6" font-family="Times,serif" font-size="14.00">S</text>
</g>
<!-- CHECK_TABLE_RULE -->
<g id="node27" class="node">
<title>CHECK_TABLE_RULE</title>
<ellipse fill="none" stroke="black" cx="495.62" cy="-86.8" rx="86.6" ry="86.6"/>
<text text-anchor="middle" x="495.62" y="-83.7" font-family="Times,serif" font-size="12.00">CHECK_TABLE_RULE</text>
</g>
<!-- START&#45;&gt;CHECK_TABLE_RULE -->
<g id="edge9" class="edge">
<title>START&#45;&gt;CHECK_TABLE_RULE</title>
<path fill="none" stroke="black" d="M76.8,-434.17C83.63,-371.03 108,-232.15 192.85,-161.8 250.35,-114.13 333.83,-96.08 398.43,-89.56"/>
<polygon fill="black" stroke="black" points="398.99,-93.02 408.62,-88.61 398.34,-86.05 398.99,-93.02"/>
<text text-anchor="middle" x="267.34" y="-165.6" font-family="Times,serif" font-size="14.00">|</text>
</g>
<!-- START&#45;&gt;CHECK_TABLE_RULE -->
<g id="edge10" class="edge">
<title>START&#45;&gt;CHECK_TABLE_RULE</title>
<path fill="none" stroke="black" d="M75.27,-434C78,-379.18 87.91,-266.33 123.85,-178.8 144.23,-129.19 145.31,-104.61 192.85,-79.8 256.79,-46.42 339.21,-50.96 401.75,-62.29"/>
<polygon fill="black" stroke="black" points="401.14,-65.73 411.61,-64.16 402.44,-58.86 401.14,-65.73"/>
<text text-anchor="middle" x="267.34" y="-83.6" font-family="Times,serif" font-size="14.00">+</text>
</g>
<!-- HEADING -->
<g id="node3" class="node">
<title>HEADING</title>
<ellipse fill="none" stroke="black" cx="495.62" cy="-1451.8" rx="44.88" ry="44.88"/>
<ellipse fill="none" stroke="black" cx="495.62" cy="-1451.8" rx="48.88" ry="48.88"/>
<text text-anchor="middle" x="495.62" y="-1448.7" font-family="Times,serif" font-size="12.00">HEADING</text>
</g>
<!-- COMMENT -->
<g id="node4" class="node">
<title>COMMENT</title>
<ellipse fill="none" stroke="black" cx="764.06" cy="-1116.8" rx="48.75" ry="48.75"/>
<ellipse fill="none" stroke="black" cx="764.06" cy="-1116.8" rx="52.76" ry="52.76"/>
<text text-anchor="middle" x="764.06" y="-1113.7" font-family="Times,serif" font-size="12.00">COMMENT</text>
</g>
<!-- LITERAL_EXAMPLE -->
<g id="node5" class="node">
<title>LITERAL_EXAMPLE</title>
<ellipse fill="none" stroke="black" cx="764.06" cy="-686.8" rx="80.78" ry="80.78"/>
<ellipse fill="none" stroke="black" cx="764.06" cy="-686.8" rx="84.78" ry="84.78"/>
<text text-anchor="middle" x="764.06" y="-683.7" font-family="Times,serif" font-size="12.00">LITERAL_EXAMPLE</text>
</g>
<!-- KEYWORD -->
<g id="node6" class="node">
<title>KEYWORD</title>
<ellipse fill="none" stroke="black" cx="764.06" cy="-992.8" rx="49.48" ry="49.48"/>
<ellipse fill="none" stroke="black" cx="764.06" cy="-992.8" rx="53.5" ry="53.5"/>
<text text-anchor="middle" x="764.06" y="-989.7" font-family="Times,serif" font-size="12.00">KEYWORD</text>
</g>
<!-- BLOCK_BEGIN -->
<g id="node7" class="node">
<title>BLOCK_BEGIN</title>
<ellipse fill="none" stroke="black" cx="764.06" cy="-1603.8" rx="62.59" ry="62.59"/>
<ellipse fill="none" stroke="black" cx="764.06" cy="-1603.8" rx="66.58" ry="66.58"/>
<text text-anchor="middle" x="764.06" y="-1600.7" font-family="Times,serif" font-size="12.00">BLOCK_BEGIN</text>
</g>
<!-- BLOCK_END -->
<g id="node8" class="node">
<title>BLOCK_END</title>
<ellipse fill="none" stroke="black" cx="764.06" cy="-1459.8" rx="55.31" ry="55.31"/>
<ellipse fill="none" stroke="black" cx="764.06" cy="-1459.8" rx="59.31" ry="59.31"/>
<text text-anchor="middle" x="764.06" y="-1456.7" font-family="Times,serif" font-size="12.00">BLOCK_END</text>
</g>
<!-- PLANNING -->
<g id="node9" class="node">
<title>PLANNING</title>
<ellipse fill="none" stroke="black" cx="764.06" cy="-315.8" rx="49.48" ry="49.48"/>
<ellipse fill="none" stroke="black" cx="764.06" cy="-315.8" rx="53.5" ry="53.5"/>
<text text-anchor="middle" x="764.06" y="-312.7" font-family="Times,serif" font-size="12.00">PLANNING</text>
</g>
<!-- TABLE_FORMULA -->
<g id="node10" class="node">
<title>TABLE_FORMULA</title>
<ellipse fill="none" stroke="black" cx="764.06" cy="-1303.8" rx="74.47" ry="74.47"/>
<ellipse fill="none" stroke="black" cx="764.06" cy="-1303.8" rx="78.47" ry="78.47"/>
<text text-anchor="middle" x="764.06" y="-1300.7" font-family="Times,serif" font-size="12.00">TABLE_FORMULA</text>
</g>
<!-- TABLE_RULE -->
<g id="node11" class="node">
<title>TABLE_RULE</title>
<ellipse fill="none" stroke="black" cx="764.06" cy="-107.8" rx="57.48" ry="57.48"/>
<ellipse fill="none" stroke="black" cx="764.06" cy="-107.8" rx="61.5" ry="61.5"/>
<text text-anchor="middle" x="764.06" y="-104.7" font-family="Times,serif" font-size="12.00">TABLE_RULE</text>
</g>
<!-- DRAWER_START_PROPERTY -->
<g id="node12" class="node">
<title>DRAWER_START_PROPERTY</title>
<ellipse fill="none" stroke="black" cx="2036.88" cy="-1230.8" rx="109.65" ry="109.65"/>
<ellipse fill="none" stroke="black" cx="2036.88" cy="-1230.8" rx="113.65" ry="113.65"/>
<text text-anchor="middle" x="2036.88" y="-1227.7" font-family="Times,serif" font-size="12.00">DRAWER_START_PROPERTY</text>
</g>
<!-- DRAWER_END -->
<g id="node13" class="node">
<title>DRAWER_END</title>
<ellipse fill="none" stroke="black" cx="1767.58" cy="-819.8" rx="61.61" ry="61.61"/>
<ellipse fill="none" stroke="black" cx="1767.58" cy="-819.8" rx="65.62" ry="65.62"/>
<text text-anchor="middle" x="1767.58" y="-816.7" font-family="Times,serif" font-size="12.00">DRAWER_END</text>
</g>
<!-- CLOCK_LINE -->
<g id="node14" class="node">
<title>CLOCK_LINE</title>
<ellipse fill="none" stroke="black" cx="764.06" cy="-523.8" rx="56.76" ry="56.76"/>
<ellipse fill="none" stroke="black" cx="764.06" cy="-523.8" rx="60.77" ry="60.77"/>
<text text-anchor="middle" x="764.06" y="-520.7" font-family="Times,serif" font-size="12.00">CLOCK_LINE</text>
</g>
<!-- CHECK_HEADING&#45;&gt;OTHER -->
<g id="edge23" class="edge">
<title>CHECK_HEADING&#45;&gt;OTHER</title>
<path fill="none" stroke="black" d="M296.16,-1520.6C330.8,-1593.69 397.5,-1698.8 494.62,-1698.8 494.62,-1698.8 494.62,-1698.8 1768.58,-1698.8 1781.86,-1698.8 1974.81,-891.53 2024.35,-683.32"/>
<polygon fill="black" stroke="black" points="2027.83,-683.83 2026.74,-673.29 2021.02,-682.21 2027.83,-683.83"/>
<text text-anchor="middle" x="1084.68" y="-1702.6" font-family="Times,serif" font-size="14.00">other</text>
</g>
<!-- CHECK_HEADING&#45;&gt;HEADING -->
<g id="edge22" class="edge">
<title>CHECK_HEADING&#45;&gt;HEADING</title>
<path fill="none" stroke="black" d="M342.12,-1451.8C372.67,-1451.8 407.6,-1451.8 436.32,-1451.8"/>
<polygon fill="black" stroke="black" points="436.6,-1455.3 446.6,-1451.8 436.6,-1448.3 436.6,-1455.3"/>
<text text-anchor="middle" x="375.32" y="-1455.6" font-family="Times,serif" font-size="14.00">space</text>
</g>
<!-- CHECK_HEADING&#45;&gt;CHECK_HEADING -->
<g id="edge21" class="edge">
<title>CHECK_HEADING&#45;&gt;CHECK_HEADING</title>
<path fill="none" stroke="black" d="M248.95,-1524.31C251.58,-1536.15 257.71,-1544.28 267.34,-1544.28 273.96,-1544.28 278.92,-1540.44 282.23,-1534.19"/>
<polygon fill="black" stroke="black" points="285.69,-1534.9 285.73,-1524.31 279.09,-1532.57 285.69,-1534.9"/>
<text text-anchor="middle" x="267.34" y="-1548.08" font-family="Times,serif" font-size="14.00">*</text>
</g>
<!-- WS_ALLOWED&#45;&gt;OTHER -->
<g id="edge20" class="edge">
<title>WS_ALLOWED&#45;&gt;OTHER</title>
<path fill="none" stroke="black" d="M328.61,-235.43C353.36,-230.78 382.37,-225.88 408.82,-222.8 615.03,-198.79 667.6,-196.8 875.2,-196.8 875.2,-196.8 875.2,-196.8 1768.58,-196.8 1948.88,-196.8 2011.17,-470.56 2029.34,-585.22"/>
<polygon fill="black" stroke="black" points="2025.89,-585.8 2030.87,-595.16 2032.81,-584.74 2025.89,-585.8"/>
<text text-anchor="middle" x="1084.68" y="-200.6" font-family="Times,serif" font-size="14.00">other</text>
</g>
<!-- WS_ALLOWED&#45;&gt;WS_ALLOWED -->
<g id="edge12" class="edge">
<title>WS_ALLOWED&#45;&gt;WS_ALLOWED</title>
<path fill="none" stroke="black" d="M248.22,-307.24C250.3,-319.32 256.68,-327.97 267.34,-327.97 274.84,-327.97 280.21,-323.69 283.47,-316.95"/>
<polygon fill="black" stroke="black" points="286.86,-317.82 286.46,-307.24 280.17,-315.77 286.86,-317.82"/>
<text text-anchor="middle" x="267.34" y="-331.77" font-family="Times,serif" font-size="14.00">space/tab</text>
</g>
<!-- WS_ALLOWED&#45;&gt;HASH_DISPATCH -->
<g id="edge13" class="edge">
<title>WS_ALLOWED&#45;&gt;HASH_DISPATCH</title>
<path fill="none" stroke="black" d="M307.75,-295.17C320.79,-313.36 333.97,-335 341.82,-356.8 369.38,-433.27 347.14,-458.51 359.82,-538.8 390.87,-735.36 445.51,-963.32 474.78,-1079.72"/>
<polygon fill="black" stroke="black" points="471.44,-1080.77 477.28,-1089.61 478.23,-1079.06 471.44,-1080.77"/>
<text text-anchor="middle" x="375.32" y="-712.6" font-family="Times,serif" font-size="14.00">#</text>
</g>
<!-- WS_ALLOWED&#45;&gt;CHECK_LITERAL -->
<g id="edge14" class="edge">
<title>WS_ALLOWED&#45;&gt;CHECK_LITERAL</title>
<path fill="none" stroke="black" d="M306.8,-296.23C319.59,-314.36 332.85,-335.69 341.82,-356.8 356.77,-391.93 348.11,-404.46 359.82,-440.8 376.49,-492.51 381.9,-505.61 408.82,-552.8 419.35,-571.24 432.11,-590.29 444.55,-607.59"/>
<polygon fill="black" stroke="black" points="441.9,-609.91 450.61,-615.94 447.57,-605.79 441.9,-609.91"/>
<text text-anchor="middle" x="375.32" y="-523.6" font-family="Times,serif" font-size="14.00">:</text>
</g>
<!-- WS_ALLOWED&#45;&gt;CHECK_C -->
<g id="edge15" class="edge">
<title>WS_ALLOWED&#45;&gt;CHECK_C</title>
<path fill="none" stroke="black" d="M303.18,-298.8C340.51,-353.07 396.11,-432.8 408.82,-444.8 419.95,-455.3 433.42,-464.9 446.35,-472.99"/>
<polygon fill="black" stroke="black" points="444.81,-476.16 455.18,-478.35 448.44,-470.17 444.81,-476.16"/>
<text text-anchor="middle" x="375.32" y="-425.6" font-family="Times,serif" font-size="14.00">C</text>
</g>
<!-- WS_ALLOWED&#45;&gt;CHECK_D -->
<g id="edge16" class="edge">
<title>WS_ALLOWED&#45;&gt;CHECK_D</title>
<path fill="none" stroke="black" d="M329.28,-255.88C363.92,-260.47 406.92,-266.17 440.38,-270.61"/>
<polygon fill="black" stroke="black" points="440.07,-274.1 450.44,-271.94 440.99,-267.16 440.07,-274.1"/>
<text text-anchor="middle" x="375.32" y="-267.6" font-family="Times,serif" font-size="14.00">D</text>
</g>
<!-- WS_ALLOWED&#45;&gt;CHECK_S -->
<g id="edge17" class="edge">
<title>WS_ALLOWED&#45;&gt;CHECK_S</title>
<path fill="none" stroke="black" d="M320.25,-280.83C359.39,-305.74 412.52,-339.55 449.81,-363.28"/>
<polygon fill="black" stroke="black" points="448.14,-366.37 458.46,-368.78 451.9,-360.46 448.14,-366.37"/>
<text text-anchor="middle" x="375.32" y="-328.6" font-family="Times,serif" font-size="14.00">S</text>
</g>
<!-- WS_ALLOWED&#45;&gt;CHECK_TABLE_RULE -->
<g id="edge18" class="edge">
<title>WS_ALLOWED&#45;&gt;CHECK_TABLE_RULE</title>
<path fill="none" stroke="black" d="M314.98,-207.77C329.11,-196.14 344.86,-183.65 359.82,-172.8 376.53,-160.69 394.9,-148.36 412.56,-136.96"/>
<polygon fill="black" stroke="black" points="414.63,-139.79 421.16,-131.44 410.85,-133.89 414.63,-139.79"/>
<text text-anchor="middle" x="375.32" y="-176.6" font-family="Times,serif" font-size="14.00">|</text>
</g>
<!-- WS_ALLOWED&#45;&gt;CHECK_TABLE_RULE -->
<g id="edge19" class="edge">
<title>WS_ALLOWED&#45;&gt;CHECK_TABLE_RULE</title>
<path fill="none" stroke="black" d="M301,-195.15C316.56,-173.64 336.82,-150.05 359.82,-133.8 372.44,-124.88 386.91,-117.52 401.58,-111.49"/>
<polygon fill="black" stroke="black" points="403.19,-114.62 411.23,-107.71 400.64,-108.1 403.19,-114.62"/>
<text text-anchor="middle" x="375.32" y="-137.6" font-family="Times,serif" font-size="14.00">+</text>
</g>
<!-- HASH_DISPATCH&#45;&gt;OTHER -->
<g id="edge56" class="edge">
<title>HASH_DISPATCH&#45;&gt;OTHER</title>
<path fill="none" stroke="black" d="M563.53,-1172.88C617.15,-1184.37 694.5,-1197.8 763.06,-1197.8 763.06,-1197.8 763.06,-1197.8 1768.58,-1197.8 1819.24,-1197.8 1829.38,-1169.67 1859.31,-1128.8 1963.15,-986.95 2010.78,-778.18 2027.93,-684.04"/>
<polygon fill="black" stroke="black" points="2031.42,-684.4 2029.73,-673.94 2024.53,-683.17 2031.42,-684.4"/>
<text text-anchor="middle" x="1196.7" y="-1201.6" font-family="Times,serif" font-size="14.00">other</text>
</g>
<!-- HASH_DISPATCH&#45;&gt;COMMENT -->
<g id="edge51" class="edge">
<title>HASH_DISPATCH&#45;&gt;COMMENT</title>
<path fill="none" stroke="black" d="M564.55,-1146.6C606.76,-1140.26 660.59,-1132.18 701.55,-1126.03"/>
<polygon fill="black" stroke="black" points="702.3,-1129.46 711.67,-1124.51 701.26,-1122.54 702.3,-1129.46"/>
<text text-anchor="middle" x="630.92" y="-1143.6" font-family="Times,serif" font-size="14.00">space/EOL</text>
</g>
<!-- HASH_DISPATCH&#45;&gt;KEYWORD -->
<g id="edge53" class="edge">
<title>HASH_DISPATCH&#45;&gt;KEYWORD</title>
<path fill="none" stroke="black" d="M555.42,-1120.6C601.4,-1092.31 664.78,-1053.29 709.39,-1025.83"/>
<polygon fill="black" stroke="black" points="711.37,-1028.72 718.05,-1020.5 707.7,-1022.76 711.37,-1028.72"/>
<text text-anchor="middle" x="630.92" y="-1092.6" font-family="Times,serif" font-size="14.00">+</text>
</g>
<!-- HASH_DISPATCH&#45;&gt;BLOCK_BEGIN -->
<g id="edge54" class="edge">
<title>HASH_DISPATCH&#45;&gt;BLOCK_BEGIN</title>
<path fill="none" stroke="black" d="M519.23,-1222.58C548.18,-1300.71 603.8,-1432.44 679.42,-1527.8 686.85,-1537.17 695.48,-1546.38 704.32,-1554.98"/>
<polygon fill="black" stroke="black" points="702.11,-1557.71 711.77,-1562.06 706.93,-1552.63 702.11,-1557.71"/>
<text text-anchor="middle" x="630.92" y="-1504.6" font-family="Times,serif" font-size="14.00">+B</text>
</g>
<!-- HASH_DISPATCH&#45;&gt;BLOCK_END -->
<g id="edge55" class="edge">
<title>HASH_DISPATCH&#45;&gt;BLOCK_END</title>
<path fill="none" stroke="black" d="M535.9,-1213.97C570.92,-1263.16 624.93,-1334.84 679.42,-1390.8 688.33,-1399.95 698.4,-1409.1 708.38,-1417.6"/>
<polygon fill="black" stroke="black" points="706.42,-1420.53 716.34,-1424.27 710.92,-1415.17 706.42,-1420.53"/>
<text text-anchor="middle" x="630.92" y="-1370.6" font-family="Times,serif" font-size="14.00">+E</text>
</g>
<!-- HASH_DISPATCH&#45;&gt;TABLE_FORMULA -->
<g id="edge52" class="edge">
<title>HASH_DISPATCH&#45;&gt;TABLE_FORMULA</title>
<path fill="none" stroke="black" d="M557.08,-1190.15C595.27,-1211.23 644.97,-1238.65 685.99,-1261.27"/>
<polygon fill="black" stroke="black" points="684.42,-1264.41 694.87,-1266.17 687.8,-1258.28 684.42,-1264.41"/>
<text text-anchor="middle" x="630.92" y="-1246.6" font-family="Times,serif" font-size="14.00">+T...</text>
</g>
<!-- CHECK_LITERAL&#45;&gt;LITERAL_EXAMPLE -->
<g id="edge24" class="edge">
<title>CHECK_LITERAL&#45;&gt;LITERAL_EXAMPLE</title>
<path fill="none" stroke="black" d="M566.97,-675.76C598.27,-677.52 635.58,-679.62 669.2,-681.51"/>
<polygon fill="black" stroke="black" points="669.33,-685.03 679.51,-682.09 669.72,-678.04 669.33,-685.03"/>
<text text-anchor="middle" x="630.92" y="-683.6" font-family="Times,serif" font-size="14.00">space/EOL</text>
</g>
<!-- CHECK_COLON -->
<g id="node19" class="node">
<title>CHECK_COLON</title>
<ellipse fill="none" stroke="black" cx="764.06" cy="-855.8" rx="65.74" ry="65.74"/>
<text text-anchor="middle" x="764.06" y="-852.7" font-family="Times,serif" font-size="12.00">CHECK_COLON</text>
</g>
<!-- CHECK_LITERAL&#45;&gt;CHECK_COLON -->
<g id="edge25" class="edge">
<title>CHECK_LITERAL&#45;&gt;CHECK_COLON</title>
<path fill="none" stroke="black" d="M554.76,-711.95C597.92,-741.75 656.68,-782.33 700.79,-812.79"/>
<polygon fill="black" stroke="black" points="698.91,-815.75 709.13,-818.55 702.89,-809.99 698.91,-815.75"/>
<text text-anchor="middle" x="630.92" y="-783.6" font-family="Times,serif" font-size="14.00">other</text>
</g>
<!-- CHECK_COLON&#45;&gt;OTHER -->
<g id="edge28" class="edge">
<title>CHECK_COLON&#45;&gt;OTHER</title>
<path fill="none" stroke="black" d="M815.68,-814.11C827.07,-803.74 838.73,-792.29 848.7,-780.8 916,-703.25 874.51,-588.8 977.19,-588.8 977.19,-588.8 977.19,-588.8 1768.58,-588.8 1846.66,-588.8 1935.73,-608.1 1988.8,-621.69"/>
<polygon fill="black" stroke="black" points="1988.04,-625.11 1998.6,-624.24 1989.81,-618.34 1988.04,-625.11"/>
<text text-anchor="middle" x="1333.73" y="-592.6" font-family="Times,serif" font-size="14.00">other</text>
</g>
<!-- CHECK_COLON_E -->
<g id="node20" class="node">
<title>CHECK_COLON_E</title>
<ellipse fill="none" stroke="black" cx="978.19" cy="-822.8" rx="74.47" ry="74.47"/>
<text text-anchor="middle" x="978.19" y="-819.7" font-family="Times,serif" font-size="12.00">CHECK_COLON_E</text>
</g>
<!-- CHECK_COLON&#45;&gt;CHECK_COLON_E -->
<g id="edge26" class="edge">
<title>CHECK_COLON&#45;&gt;CHECK_COLON_E</title>
<path fill="none" stroke="black" d="M829.28,-845.81C849.71,-842.63 872.59,-839.07 894.15,-835.72"/>
<polygon fill="black" stroke="black" points="894.93,-839.14 904.27,-834.14 893.85,-832.22 894.93,-839.14"/>
<text text-anchor="middle" x="876.2" y="-842.6" font-family="Times,serif" font-size="14.00">E/e</text>
</g>
<!-- CHECK_COLON_NAME -->
<g id="node23" class="node">
<title>CHECK_COLON_NAME</title>
<ellipse fill="none" stroke="black" cx="1767.58" cy="-994.8" rx="91.95" ry="91.95"/>
<text text-anchor="middle" x="1767.58" y="-991.7" font-family="Times,serif" font-size="12.00">CHECK_COLON_NAME</text>
</g>
<!-- CHECK_COLON&#45;&gt;CHECK_COLON_NAME -->
<g id="edge27" class="edge">
<title>CHECK_COLON&#45;&gt;CHECK_COLON_NAME</title>
<path fill="none" stroke="black" d="M813.23,-899.99C863.55,-944.24 940.2,-1005.8 977.19,-1005.8 977.19,-1005.8 977.19,-1005.8 1477.29,-1005.8 1539.87,-1005.8 1610,-1003.2 1665.54,-1000.52"/>
<polygon fill="black" stroke="black" points="1665.92,-1004.01 1675.74,-1000.02 1665.58,-997.02 1665.92,-1004.01"/>
<text text-anchor="middle" x="1196.7" y="-1009.6" font-family="Times,serif" font-size="14.00">[A&#45;Za&#45;z0&#45;9_&#45;]</text>
</g>
<!-- CHECK_COLON_E&#45;&gt;OTHER -->
<g id="edge31" class="edge">
<title>CHECK_COLON_E&#45;&gt;OTHER</title>
<path fill="none" stroke="black" d="M1016.94,-759.15C1054.63,-704.61 1118.04,-634.8 1195.7,-634.8 1195.7,-634.8 1195.7,-634.8 1768.58,-634.8 1844.72,-634.8 1933.05,-634.8 1986.68,-634.8"/>
<polygon fill="black" stroke="black" points="1986.93,-638.3 1996.93,-634.8 1986.93,-631.3 1986.93,-638.3"/>
<text text-anchor="middle" x="1476.29" y="-638.6" font-family="Times,serif" font-size="14.00">other</text>
</g>
<!-- CHECK_COLON_EN -->
<g id="node21" class="node">
<title>CHECK_COLON_EN</title>
<ellipse fill="none" stroke="black" cx="1196.7" cy="-805.8" rx="80.05" ry="80.05"/>
<text text-anchor="middle" x="1196.7" y="-802.7" font-family="Times,serif" font-size="12.00">CHECK_COLON_EN</text>
</g>
<!-- CHECK_COLON_E&#45;&gt;CHECK_COLON_EN -->
<g id="edge29" class="edge">
<title>CHECK_COLON_E&#45;&gt;CHECK_COLON_EN</title>
<path fill="none" stroke="black" d="M1052.49,-817.04C1069.9,-815.68 1088.67,-814.2 1106.7,-812.79"/>
<polygon fill="black" stroke="black" points="1107.22,-816.26 1116.91,-811.98 1106.67,-809.28 1107.22,-816.26"/>
<text text-anchor="middle" x="1084.68" y="-818.6" font-family="Times,serif" font-size="14.00">N/n</text>
</g>
<!-- CHECK_COLON_E&#45;&gt;CHECK_COLON_NAME -->
<g id="edge30" class="edge">
<title>CHECK_COLON_E&#45;&gt;CHECK_COLON_NAME</title>
<path fill="none" stroke="black" d="M1042.37,-861.23C1065.1,-873.6 1091.39,-886.3 1116.68,-894.8 1304.07,-957.81 1535.36,-981.33 1665.38,-989.96"/>
<polygon fill="black" stroke="black" points="1665.52,-993.47 1675.72,-990.62 1665.97,-986.49 1665.52,-993.47"/>
<text text-anchor="middle" x="1333.73" y="-959.6" font-family="Times,serif" font-size="14.00">[A&#45;Za&#45;z0&#45;9_&#45;]</text>
</g>
<!-- CHECK_COLON_EN&#45;&gt;OTHER -->
<g id="edge34" class="edge">
<title>CHECK_COLON_EN&#45;&gt;OTHER</title>
<path fill="none" stroke="black" d="M1263.5,-760.96C1299.5,-738.73 1345.81,-713.72 1390.73,-699.8 1610.25,-631.77 1676.7,-672.38 1905.31,-648.8 1932.39,-646 1962.63,-642.77 1987.18,-640.11"/>
<polygon fill="black" stroke="black" points="1987.76,-643.57 1997.32,-639.01 1987,-636.61 1987.76,-643.57"/>
<text text-anchor="middle" x="1618.86" y="-663.6" font-family="Times,serif" font-size="14.00">other</text>
</g>
<!-- CHECK_COLON_END -->
<g id="node22" class="node">
<title>CHECK_COLON_END</title>
<ellipse fill="none" stroke="black" cx="1476.29" cy="-794.8" rx="85.63" ry="85.63"/>
<text text-anchor="middle" x="1476.29" y="-791.7" font-family="Times,serif" font-size="12.00">CHECK_COLON_END</text>
</g>
<!-- CHECK_COLON_EN&#45;&gt;CHECK_COLON_END -->
<g id="edge32" class="edge">
<title>CHECK_COLON_EN&#45;&gt;CHECK_COLON_END</title>
<path fill="none" stroke="black" d="M1276.88,-802.66C1309.12,-801.38 1346.66,-799.9 1380.35,-798.56"/>
<polygon fill="black" stroke="black" points="1380.82,-802.04 1390.68,-798.15 1380.55,-795.05 1380.82,-802.04"/>
<text text-anchor="middle" x="1333.73" y="-805.6" font-family="Times,serif" font-size="14.00">D/d</text>
</g>
<!-- CHECK_COLON_EN&#45;&gt;CHECK_COLON_NAME -->
<g id="edge33" class="edge">
<title>CHECK_COLON_EN&#45;&gt;CHECK_COLON_NAME</title>
<path fill="none" stroke="black" d="M1268.78,-840.87C1304.67,-857.51 1349.29,-876.59 1390.73,-889.8 1506.31,-926.64 1542.52,-908.21 1657.86,-945.8 1663.47,-947.63 1669.18,-949.66 1674.9,-951.82"/>
<polygon fill="black" stroke="black" points="1673.92,-955.19 1684.51,-955.57 1676.47,-948.67 1673.92,-955.19"/>
<text text-anchor="middle" x="1476.29" y="-925.6" font-family="Times,serif" font-size="14.00">[A&#45;Za&#45;z0&#45;9_&#45;]</text>
</g>
<!-- CHECK_COLON_END&#45;&gt;OTHER -->
<g id="edge37" class="edge">
<title>CHECK_COLON_END&#45;&gt;OTHER</title>
<path fill="none" stroke="black" d="M1557.22,-765.81C1593.15,-753.52 1636.29,-739.76 1675.86,-729.8 1776.32,-704.51 1805.88,-717.87 1905.31,-688.8 1934.85,-680.16 1966.8,-667.02 1991.7,-655.86"/>
<polygon fill="black" stroke="black" points="1993.22,-659.01 2000.88,-651.7 1990.33,-652.64 1993.22,-659.01"/>
<text text-anchor="middle" x="1767.58" y="-733.6" font-family="Times,serif" font-size="14.00">other</text>
</g>
<!-- CHECK_COLON_END&#45;&gt;DRAWER_END -->
<g id="edge35" class="edge">
<title>CHECK_COLON_END&#45;&gt;DRAWER_END</title>
<path fill="none" stroke="black" d="M1561.75,-802.1C1602.86,-805.65 1651.88,-809.88 1691.65,-813.32"/>
<polygon fill="black" stroke="black" points="1691.55,-816.83 1701.81,-814.2 1692.15,-809.85 1691.55,-816.83"/>
<text text-anchor="middle" x="1618.86" y="-813.6" font-family="Times,serif" font-size="14.00">:</text>
</g>
<!-- CHECK_COLON_END&#45;&gt;CHECK_COLON_NAME -->
<g id="edge36" class="edge">
<title>CHECK_COLON_END&#45;&gt;CHECK_COLON_NAME</title>
<path fill="none" stroke="black" d="M1555.39,-828.63C1588.34,-844.5 1626.3,-864.95 1657.86,-887.8 1671.4,-897.6 1684.87,-909.07 1697.49,-920.79"/>
<polygon fill="black" stroke="black" points="1695.14,-923.39 1704.81,-927.71 1699.95,-918.3 1695.14,-923.39"/>
<text text-anchor="middle" x="1618.86" y="-891.6" font-family="Times,serif" font-size="14.00">[A&#45;Za&#45;z0&#45;9_&#45;]</text>
</g>
<!-- CHECK_COLON_NAME&#45;&gt;OTHER -->
<g id="edge40" class="edge">
<title>CHECK_COLON_NAME&#45;&gt;OTHER</title>
<path fill="none" stroke="black" d="M1831.16,-928.41C1840.84,-917.41 1850.54,-905.94 1859.31,-894.8 1917.2,-821.23 1976.81,-729.48 2009.82,-676.97"/>
<polygon fill="black" stroke="black" points="2012.94,-678.6 2015.28,-668.27 2007.01,-674.88 2012.94,-678.6"/>
<text text-anchor="middle" x="1891.31" y="-870.6" font-family="Times,serif" font-size="14.00">other</text>
</g>
<!-- CHECK_COLON_NAME&#45;&gt;DRAWER_START_PROPERTY -->
<g id="edge39" class="edge">
<title>CHECK_COLON_NAME&#45;&gt;DRAWER_START_PROPERTY</title>
<path fill="none" stroke="black" d="M1837.07,-1055.27C1869.28,-1083.71 1908.18,-1118.05 1943,-1148.79"/>
<polygon fill="black" stroke="black" points="1941.01,-1151.71 1950.82,-1155.7 1945.64,-1146.46 1941.01,-1151.71"/>
<text text-anchor="middle" x="1891.31" y="-1116.6" font-family="Times,serif" font-size="14.00">:</text>
</g>
<!-- CHECK_COLON_NAME&#45;&gt;CHECK_COLON_NAME -->
<g id="edge38" class="edge">
<title>CHECK_COLON_NAME&#45;&gt;CHECK_COLON_NAME</title>
<path fill="none" stroke="black" d="M1747.29,-1084.34C1750.69,-1096.46 1757.46,-1104.52 1767.58,-1104.52 1774.7,-1104.52 1780.16,-1100.53 1783.96,-1093.96"/>
<polygon fill="black" stroke="black" points="1787.34,-1094.93 1787.88,-1084.34 1780.86,-1092.28 1787.34,-1094.93"/>
<text text-anchor="middle" x="1767.58" y="-1108.32" font-family="Times,serif" font-size="14.00">[A&#45;Za&#45;z0&#45;9_&#45;]</text>
</g>
<!-- CHECK_C&#45;&gt;OTHER -->
<g id="edge43" class="edge">
<title>CHECK_C&#45;&gt;OTHER</title>
<path fill="none" stroke="black" d="M538.58,-485.52C575.29,-474.61 630.29,-459.98 679.42,-453.8 967.52,-417.52 1042.36,-447.8 1332.73,-447.8 1332.73,-447.8 1332.73,-447.8 1768.58,-447.8 1870.61,-447.8 1961.4,-540.39 2006.25,-595.27"/>
<polygon fill="black" stroke="black" points="2003.54,-597.48 2012.53,-603.08 2008.99,-593.09 2003.54,-597.48"/>
<text text-anchor="middle" x="1196.7" y="-451.6" font-family="Times,serif" font-size="14.00">other</text>
</g>
<!-- CHECK_C&#45;&gt;PLANNING -->
<g id="edge41" class="edge">
<title>CHECK_C&#45;&gt;PLANNING</title>
<path fill="none" stroke="black" d="M536.92,-479.84C552.65,-470.92 569.88,-459.08 582.42,-444.8 595.02,-430.45 587.42,-419.78 600.42,-405.8 628.94,-375.12 670.35,-352.41 704.25,-337.48"/>
<polygon fill="black" stroke="black" points="705.78,-340.63 713.59,-333.48 703.02,-334.2 705.78,-340.63"/>
<text text-anchor="middle" x="630.92" y="-409.6" font-family="Times,serif" font-size="14.00">L</text>
</g>
<!-- CHECK_C&#45;&gt;CLOCK_LINE -->
<g id="edge42" class="edge">
<title>CHECK_C&#45;&gt;CLOCK_LINE</title>
<path fill="none" stroke="black" d="M540.62,-502.93C582.15,-506.82 645.1,-512.73 693.45,-517.27"/>
<polygon fill="black" stroke="black" points="693.25,-520.76 703.53,-518.21 693.9,-513.79 693.25,-520.76"/>
<text text-anchor="middle" x="630.92" y="-517.6" font-family="Times,serif" font-size="14.00">O</text>
</g>
<!-- CHECK_D&#45;&gt;OTHER -->
<g id="edge45" class="edge">
<title>CHECK_D&#45;&gt;OTHER</title>
<path fill="none" stroke="black" d="M540.8,-270.56C577.74,-264.86 631.86,-257.31 679.42,-253.8 969.03,-232.42 1042.33,-242.8 1332.73,-242.8 1332.73,-242.8 1332.73,-242.8 1768.58,-242.8 1932.8,-242.8 2003.35,-480.53 2026.53,-585.72"/>
<polygon fill="black" stroke="black" points="2023.17,-586.74 2028.69,-595.78 2030.01,-585.27 2023.17,-586.74"/>
<text text-anchor="middle" x="1196.7" y="-246.6" font-family="Times,serif" font-size="14.00">other</text>
</g>
<!-- CHECK_D&#45;&gt;PLANNING -->
<g id="edge44" class="edge">
<title>CHECK_D&#45;&gt;PLANNING</title>
<path fill="none" stroke="black" d="M541.39,-275.31C574.74,-274.31 621.25,-274.76 661.42,-281.8 675.79,-284.32 690.89,-288.48 704.93,-293.05"/>
<polygon fill="black" stroke="black" points="703.86,-296.38 714.46,-296.26 706.1,-289.75 703.86,-296.38"/>
<text text-anchor="middle" x="630.92" y="-285.6" font-family="Times,serif" font-size="14.00">E</text>
</g>
<!-- CHECK_S&#45;&gt;OTHER -->
<g id="edge47" class="edge">
<title>CHECK_S&#45;&gt;OTHER</title>
<path fill="none" stroke="black" d="M539.53,-393.1C592.18,-394.58 684.18,-396.8 763.06,-396.8 763.06,-396.8 763.06,-396.8 1768.58,-396.8 1884.1,-396.8 1972.8,-522.31 2012.72,-591.04"/>
<polygon fill="black" stroke="black" points="2009.8,-592.99 2017.79,-599.94 2015.88,-589.52 2009.8,-592.99"/>
<text text-anchor="middle" x="1196.7" y="-400.6" font-family="Times,serif" font-size="14.00">other</text>
</g>
<!-- CHECK_S&#45;&gt;PLANNING -->
<g id="edge46" class="edge">
<title>CHECK_S&#45;&gt;PLANNING</title>
<path fill="none" stroke="black" d="M529.94,-364.45C549.28,-350.22 574.83,-334.11 600.42,-325.8 632.45,-315.4 669.86,-312.51 700.72,-312.39"/>
<polygon fill="black" stroke="black" points="700.9,-315.89 710.92,-312.45 700.94,-308.89 700.9,-315.89"/>
<text text-anchor="middle" x="630.92" y="-329.6" font-family="Times,serif" font-size="14.00">C</text>
</g>
<!-- CHECK_TABLE_RULE&#45;&gt;OTHER -->
<g id="edge50" class="edge">
<title>CHECK_TABLE_RULE&#45;&gt;OTHER</title>
<path fill="none" stroke="black" d="M576.6,-55.29C628.83,-37.5 698.97,-18.8 763.06,-18.8 763.06,-18.8 763.06,-18.8 1768.58,-18.8 2014.78,-18.8 2036.68,-437.99 2036.81,-584.77"/>
<polygon fill="black" stroke="black" points="2033.31,-584.85 2036.78,-594.85 2040.31,-584.86 2033.31,-584.85"/>
<text text-anchor="middle" x="1196.7" y="-22.6" font-family="Times,serif" font-size="14.00">other</text>
</g>
<!-- CHECK_TABLE_RULE&#45;&gt;TABLE_RULE -->
<g id="edge48" class="edge">
<title>CHECK_TABLE_RULE&#45;&gt;TABLE_RULE</title>
<path fill="none" stroke="black" d="M582.14,-95.23C588.32,-95.78 594.47,-96.31 600.42,-96.8 630.57,-99.27 663.89,-101.59 692.48,-103.46"/>
<polygon fill="black" stroke="black" points="692.58,-106.98 702.78,-104.13 693.03,-99.99 692.58,-106.98"/>
<text text-anchor="middle" x="630.92" y="-105.6" font-family="Times,serif" font-size="14.00">&#45;</text>
</g>
<!-- CHECK_TABLE_RULE&#45;&gt;TABLE_RULE -->
<g id="edge49" class="edge">
<title>CHECK_TABLE_RULE&#45;&gt;TABLE_RULE</title>
<path fill="none" stroke="black" d="M582.02,-75.73C607.64,-74.13 635.76,-74.09 661.42,-77.8 672.76,-79.44 684.59,-82.05 696.01,-85.07"/>
<polygon fill="black" stroke="black" points="695.35,-88.52 705.92,-87.82 697.22,-81.77 695.35,-88.52"/>
<text text-anchor="middle" x="630.92" y="-81.6" font-family="Times,serif" font-size="14.00">+</text>
</g>
<!-- entry -->
<g id="node28" class="node">
<title>entry</title>
<ellipse fill="black" stroke="black" cx="1.8" cy="-466.8" rx="1.8" ry="1.8"/>
</g>
<!-- entry&#45;&gt;START -->
<g id="edge1" class="edge">
<title>entry&#45;&gt;START</title>
<path fill="none" stroke="black" d="M3.78,-466.8C7.06,-466.8 18.11,-466.8 30.41,-466.8"/>
<polygon fill="black" stroke="black" points="30.41,-470.3 40.41,-466.8 30.41,-463.3 30.41,-470.3"/>
</g>
</g>
</svg>
